<svg width="34" height="34" viewBox="0 0 34 34" fill="none" xmlns="http://www.w3.org/2000/svg">
<path d="M17.0026 2.8335C9.1826 2.8335 2.83594 9.18016 2.83594 17.0002C2.83594 24.8202 9.1826 31.1668 17.0026 31.1668C24.8226 31.1668 31.1693 24.8202 31.1693 17.0002C31.1693 9.18016 24.8226 2.8335 17.0026 2.8335ZM17.0026 18.4168C16.2234 18.4168 15.5859 17.7793 15.5859 17.0002V11.3335C15.5859 10.5543 16.2234 9.91683 17.0026 9.91683C17.7818 9.91683 18.4193 10.5543 18.4193 11.3335V17.0002C18.4193 17.7793 17.7818 18.4168 17.0026 18.4168ZM18.4193 24.0835H15.5859V21.2502H18.4193V24.0835Z" fill="#871903"/>
</svg>
