<svg width="24" height="24" viewBox="0 0 24 24" fill="none" xmlns="http://www.w3.org/2000/svg">
<path d="M10.5 12.9332H9.5C8.67 12.9332 8 12.2632 8 11.4332C8 10.6032 8.67 9.93317 9.5 9.93317H10.5V8.93317C10.5 8.10317 11.17 7.43317 12 7.43317C12.83 7.43317 13.5 8.10317 13.5 8.93317V9.93317H14.5C15.33 9.93317 16 10.6032 16 11.4332C16 12.2632 15.33 12.9332 14.5 12.9332H13.5V13.9332C13.5 14.7632 12.83 15.4332 12 15.4332C11.17 15.4332 10.5 14.7632 10.5 13.9332V12.9332ZM11.3 2.19317L5.3 4.44317C4.52 4.74317 4 5.48317 4 6.32317V11.0232C4 16.0732 7.41 20.7832 12 21.9332C16.59 20.7832 20 16.0732 20 11.0232V6.32317C20 5.49317 19.48 4.74317 18.7 4.45317L12.7 2.20317C12.25 2.02317 11.75 2.02317 11.3 2.19317Z" fill="#090814"/>
</svg>
