<svg width="100" height="100" viewBox="0 0 100 100" fill="none" xmlns="http://www.w3.org/2000/svg">
<path d="M50 100C43.2515 100 36.703 98.6773 30.5366 96.0696C24.5825 93.5515 19.2351 89.9466 14.6452 85.3558C10.0543 80.7649 6.45037 75.4184 3.93135 69.4643C1.32272 63.296 0 56.7485 0 50C0 43.2515 1.32272 36.703 3.93041 30.5366C6.44848 24.5825 10.0534 19.2351 14.6442 14.6452C19.2351 10.0543 24.5816 6.45037 30.5357 3.93135C36.703 1.32272 43.2515 0 50 0C56.7485 0 63.297 1.32272 69.4634 3.93041C75.4175 6.44848 80.765 10.0534 85.3548 14.6442C89.9457 19.2351 93.5496 24.5816 96.0687 30.5357C98.6773 36.7021 99.9991 43.2506 99.9991 49.9991C99.9991 51.0793 99.9642 52.1709 99.8953 53.2436L92.2184 52.7511C92.2769 51.8416 92.3062 50.9151 92.3062 49.9991C92.3062 44.2855 91.1882 38.7456 88.9833 33.5321C86.853 28.495 83.8019 23.9693 79.9149 20.0832C76.0279 16.1962 71.5031 13.1451 66.466 11.0148C61.2525 8.80993 55.7126 7.69195 49.9991 7.69195C44.2855 7.69195 38.7456 8.80993 33.5321 11.0148C28.495 13.1451 23.9693 16.1962 20.0832 20.0832C16.1962 23.9702 13.1451 28.495 11.0148 33.5321C8.80993 38.7456 7.69195 44.2855 7.69195 49.9991C7.69195 55.7126 8.80993 61.2525 11.0148 66.466C13.1451 71.5031 16.1962 76.0288 20.0832 79.9149C23.9702 83.8019 28.495 86.853 33.5321 88.9833C38.7456 91.1882 44.2855 92.3062 49.9991 92.3062C57.692 92.3062 65.2216 90.2221 71.7748 86.2804C78.1459 82.4481 83.4189 76.9874 87.0229 70.4908L93.7497 74.2221C89.4919 81.8961 83.2651 88.3456 75.7401 92.8722C67.9897 97.5348 59.0892 99.9991 49.9991 99.9991L50 100Z" fill="#5E54C5"/>
<path d="M94.2293 66.5283C96.3536 66.5283 98.0757 64.8062 98.0757 62.6819C98.0757 60.5576 96.3536 58.8354 94.2293 58.8354C92.1049 58.8354 90.3828 60.5576 90.3828 62.6819C90.3828 64.8062 92.1049 66.5283 94.2293 66.5283Z" fill="#5E54C5"/>
</svg>
