<svg width="48" height="48" viewBox="0 0 48 48" fill="none" xmlns="http://www.w3.org/2000/svg">
<path d="M38.5811 34.08L36.0011 31.5V21.5C36.0011 15.36 32.7211 10.22 27.0011 8.86V7.5C27.0011 5.84 25.6611 4.5 24.0011 4.5C22.3411 4.5 21.0011 5.84 21.0011 7.5V8.86C15.2611 10.22 12.0011 15.34 12.0011 21.5V31.5L9.42108 34.08C8.16108 35.34 9.04108 37.5 10.8211 37.5H37.1611C38.9611 37.5 39.8411 35.34 38.5811 34.08ZM32.0011 33.5H16.0011V21.5C16.0011 16.54 19.0211 12.5 24.0011 12.5C28.9811 12.5 32.0011 16.54 32.0011 21.5V33.5ZM24.0011 43.5C26.2011 43.5 28.0011 41.7 28.0011 39.5H20.0011C20.0011 41.7 21.7811 43.5 24.0011 43.5Z" fill="#090814"/>
</svg>
