<svg width="24" height="24" viewBox="0 0 24 24" fill="none" xmlns="http://www.w3.org/2000/svg">
<path d="M18 18C17.45 18 17 17.55 17 17V11C17 10.45 17.45 10 18 10C18.55 10 19 10.45 19 11V17C19 17.55 18.55 18 18 18ZM18 20C17.45 20 17 20.45 17 21C17 21.55 17.45 22 18 22C18.55 22 19 21.55 19 21C19 20.45 18.55 20 18 20Z" fill="#871903"/>
<path d="M5 19.5C5 20.05 5.45 20.5 6 20.5H14C14.55 20.5 15 20.05 15 19.5C15 18.95 14.55 18.5 14 18.5H6C5.45 18.5 5 18.95 5 19.5Z" fill="#871903"/>
<path d="M15.0003 4.5V9.5L14.9958 13.0915C14.9954 13.3563 14.8901 13.6101 14.7029 13.7974L12.7003 15.8C12.3103 16.19 11.6803 16.19 11.2903 15.8L6.70026 11.21C6.07026 10.58 6.52026 9.5 7.41026 9.5H9.00026V4.5C9.00026 3.95 9.45026 3.5 10.0003 3.5H14.0003C14.5503 3.5 15.0003 3.95 15.0003 4.5Z" fill="#871903"/>
</svg>
