<svg width="24" height="24" viewBox="0 0 24 24" fill="none" xmlns="http://www.w3.org/2000/svg">
<path d="M5.6431 12.0381H2.8531C2.4031 12.0381 2.1831 12.5781 2.5031 12.8881L6.2931 16.6881C6.4931 16.8881 6.8031 16.8881 7.0031 16.6881L10.7931 12.8981C11.1031 12.5781 10.8831 12.0381 10.4331 12.0381H7.6431C7.6431 8.30806 11.0631 5.35806 14.9331 6.17806C17.2031 6.64806 19.0331 8.48806 19.5031 10.7481C20.2531 14.3181 17.8031 17.4981 14.4931 17.9781C14.0131 18.0481 13.6431 18.4681 13.6431 18.9581C13.6431 19.5581 14.1731 20.0381 14.7731 19.9581C19.1631 19.3381 22.4131 15.1581 21.4931 10.4281C20.8831 7.30806 18.3731 4.79806 15.2531 4.18806C10.1231 3.19806 5.6431 7.09806 5.6431 12.0381Z" fill="black"/>
</svg>
