<svg width="48" height="48" viewBox="0 0 48 48" fill="none" xmlns="http://www.w3.org/2000/svg">
<path d="M23.98 4C12.94 4 4 12.96 4 24C4 35.04 12.94 44 23.98 44C35.04 44 44 35.04 44 24C44 12.96 35.04 4 23.98 4ZM24 40C15.16 40 8 32.84 8 24C8 15.16 15.16 8 24 8C32.84 8 40 15.16 40 24C40 32.84 32.84 40 24 40ZM23.56 14H23.44C22.64 14 22 14.64 22 15.44V24.88C22 25.58 22.36 26.24 22.98 26.6L31.28 31.58C31.96 31.98 32.84 31.78 33.24 31.1C33.66 30.42 33.44 29.52 32.74 29.12L25 24.52V15.44C25 14.64 24.36 14 23.56 14Z" fill="#090814"/>
</svg>
