<svg width="24" height="24" viewBox="0 0 24 24" fill="none" xmlns="http://www.w3.org/2000/svg">
<path d="M16.6434 7.05361L18.0834 8.49361L13.2034 13.3736L9.91344 10.0836C9.52344 9.69361 8.89344 9.69361 8.50344 10.0836L2.50344 16.0936C2.11344 16.4836 2.11344 17.1136 2.50344 17.5036C2.89344 17.8936 3.52344 17.8936 3.91344 17.5036L9.20344 12.2036L12.4934 15.4936C12.8834 15.8836 13.5134 15.8836 13.9034 15.4936L19.4934 9.91361L20.9334 11.3536C21.2434 11.6636 21.7834 11.4436 21.7834 11.0036V6.70361C21.7934 6.42361 21.5734 6.20361 21.2934 6.20361H17.0034C16.5534 6.20361 16.3334 6.74361 16.6434 7.05361Z" fill="white"/>
</svg>
