<svg width="48" height="48" viewBox="0 0 48 48" fill="none" xmlns="http://www.w3.org/2000/svg">
<path d="M33.2947 14.1082L36.1747 16.9882L26.4147 26.7482L19.8347 20.1682C19.0547 19.3882 17.7947 19.3882 17.0147 20.1682L5.01469 32.1882C4.23469 32.9682 4.23469 34.2282 5.01469 35.0082C5.79469 35.7882 7.05469 35.7882 7.83469 35.0082L18.4147 24.4082L24.9947 30.9882C25.7747 31.7682 27.0347 31.7682 27.8147 30.9882L38.9947 19.8282L41.8747 22.7082C42.4947 23.3282 43.5747 22.8882 43.5747 22.0082V13.4082C43.5947 12.8482 43.1547 12.4082 42.5947 12.4082H34.0147C33.1147 12.4082 32.6747 13.4882 33.2947 14.1082Z" fill="#090814"/>
</svg>
