<svg width="24" height="24" viewBox="0 0 24 24" fill="none" xmlns="http://www.w3.org/2000/svg">
<path d="M21.9974 4.9999V16.4999C21.9974 16.8332 21.8932 17.0832 21.6849 17.2499C21.4765 17.4166 21.2474 17.4999 20.9974 17.4999C20.7474 17.4999 20.5182 17.4124 20.3099 17.2374C20.1015 17.0624 19.9974 16.8082 19.9974 16.4749V4.9999H7.99738C7.66404 4.9999 7.41404 4.89574 7.24738 4.6874C7.08071 4.47907 6.99738 4.2499 6.99738 3.9999C6.99738 3.7499 7.08071 3.52074 7.24738 3.3124C7.41404 3.10407 7.66404 2.9999 7.99738 2.9999H19.9974C20.5474 2.9999 21.0182 3.19574 21.4099 3.5874C21.8015 3.97907 21.9974 4.4499 21.9974 4.9999ZM3.17237 3.1749L4.99738 4.9999H3.99738V16.9999H14.1474L1.39738 4.1999C1.21404 4.01657 1.11821 3.7874 1.10988 3.5124C1.10154 3.2374 1.19738 2.9999 1.39738 2.7999C1.58071 2.61657 1.81404 2.5249 2.09738 2.5249C2.38071 2.5249 2.61404 2.61657 2.79737 2.7999L21.1974 21.1999C21.3807 21.3832 21.4724 21.6166 21.4724 21.8999C21.4724 22.1832 21.3807 22.4166 21.1974 22.5999C21.014 22.7832 20.7807 22.8749 20.4974 22.8749C20.214 22.8749 19.9807 22.7832 19.7974 22.5999L16.1974 18.9999H15.9974V19.9999C15.9974 20.2832 15.9015 20.5207 15.7099 20.7124C15.5182 20.9041 15.2807 20.9999 14.9974 20.9999H8.99738C8.71404 20.9999 8.47654 20.9041 8.28487 20.7124C8.09321 20.5207 7.99738 20.2832 7.99738 19.9999V18.9999H3.99738C3.44738 18.9999 2.97654 18.8041 2.58487 18.4124C2.19321 18.0207 1.99738 17.5499 1.99738 16.9999V4.9999C1.99738 4.38324 2.19321 3.9249 2.58487 3.6249L3.17237 3.1749Z" fill="#871903"/>
</svg>
